<svg xmlns="http://www.w3.org/2000/svg" viewBox="0 0 48 48">
  <defs>
    <linearGradient id="silver" x1="0%" y1="0%" x2="0%" y2="100%">
      <stop offset="0%" stop-color="#ffffff"/>
      <stop offset="45%" stop-color="#dde8f0"/>
      <stop offset="100%" stop-color="#8899bb"/>
    </linearGradient>
    <filter id="glow" x="-20%" y="-20%" width="140%" height="140%">
      <feGaussianBlur stdDeviation="1.2" result="blur"/>
      <feMerge><feMergeNode in="blur"/><feMergeNode in="SourceGraphic"/></feMerge>
    </filter>
  </defs>

  <rect width="48" height="48" rx="8" fill="#0a0a0f"/>
  <rect width="48" height="48" rx="8" fill="none" stroke="#ffffff" stroke-width="0.6" opacity="0.12"/>

  <g fill="url(#silver)" filter="url(#glow)">
    <!-- K -->
    <rect x="2" y="9" width="3" height="30" rx="1"/>
    <polygon points="5,24 13,9 17,9 9,24"/>
    <polygon points="5,24 13,39 17,39 9,24"/>

    <!-- A -->
    <polygon points="19,39 22.5,39 27,9 23.5,9"/>
    <polygon points="27,9 30.5,9 34,39 30.5,39"/>
    <rect x="22" y="27" width="10" height="3" rx="1"/>

    <!-- I -->
    <rect x="36.5" y="9" width="3" height="30" rx="1"/>
    <!-- I 顶横 -->
    <rect x="34" y="9" width="8" height="3" rx="1"/>
    <!-- I 底横 -->
    <rect x="34" y="36" width="8" height="3" rx="1"/>
  </g>
</svg>
